<svg width="48" height="22" viewBox="0 0 48 22" fill="none" xmlns="http://www.w3.org/2000/svg">
<path d="M4.59772 16.0843H4.89303L4.61647 17.241C4.57428 17.4109 4.58365 17.5431 4.6399 17.6281C4.69615 17.7131 4.79928 17.7556 4.95397 17.7556C5.10397 17.7556 5.23053 17.7131 5.32897 17.6281C5.4274 17.5431 5.49303 17.4109 5.53522 17.241L5.81178 16.0843H6.11178L5.83053 17.2693C5.76959 17.5242 5.66178 17.7178 5.5024 17.8453C5.34772 17.9727 5.14147 18.0388 4.88834 18.0388C4.63522 18.0388 4.46178 17.9775 4.36803 17.85C4.27428 17.7225 4.25553 17.529 4.31647 17.274L4.59772 16.0843ZM6.06959 17.9869L6.53834 16.0088L7.42897 17.1702C7.4524 17.2032 7.47584 17.2363 7.49928 17.274C7.52272 17.3118 7.54615 17.3543 7.57428 17.4015L7.88834 16.0843H8.1649L7.69615 18.0577L6.78678 16.8727L6.71647 16.7736C6.69303 16.7358 6.67428 16.7028 6.66022 16.6603L6.34615 17.9822H6.06959V17.9869ZM8.14147 17.9869L8.59147 16.0843H8.89147L8.44147 17.9869H8.14147ZM8.86803 17.9869L9.31803 16.0843H10.3446L10.2837 16.3487H9.55709L9.44459 16.8208H10.1712L10.1055 17.0899H9.37897L9.16803 17.9822H8.86803V17.9869ZM10.2274 17.9869L10.6774 16.0843H10.9774L10.5274 17.9869H10.2274ZM10.954 17.9869L11.404 16.0843H12.4305L12.3696 16.3487H11.643L11.5305 16.8255H12.2571L12.1915 17.0946H11.4649L11.3196 17.7084H12.0462L11.9805 17.9869H10.954ZM12.3274 17.9869L12.7774 16.0843H13.1805C13.443 16.0843 13.6258 16.0985 13.7243 16.1268C13.8227 16.1551 13.9071 16.1976 13.9727 16.2637C14.0571 16.3487 14.1133 16.4573 14.1368 16.5848C14.1602 16.7169 14.1508 16.868 14.1133 17.0333C14.0712 17.2032 14.0102 17.3496 13.9258 17.4817C13.8415 17.6139 13.7337 17.7178 13.6071 17.8028C13.5133 17.8689 13.4102 17.9114 13.2977 17.9397C13.1899 17.968 13.0258 17.9822 12.8102 17.9822H12.3274V17.9869ZM12.693 17.7036H12.9462C13.0821 17.7036 13.1899 17.6942 13.2649 17.6753C13.3399 17.6564 13.4055 17.6234 13.4665 17.5809C13.5508 17.5195 13.6212 17.444 13.6774 17.3496C13.7337 17.2599 13.7758 17.1513 13.804 17.0285C13.8321 16.9058 13.8415 16.8019 13.8274 16.7122C13.8133 16.6225 13.7805 16.5423 13.7243 16.4809C13.6821 16.4337 13.6305 16.4054 13.5602 16.3865C13.4899 16.3676 13.3821 16.3581 13.2274 16.3581H13.0118L12.693 17.7036ZM15.4915 17.1324L15.2899 17.9869H15.0087L15.4587 16.0843H15.9133C16.0493 16.0843 16.143 16.0938 16.204 16.1079C16.2649 16.1221 16.3118 16.1457 16.3493 16.1835C16.3962 16.226 16.429 16.2873 16.443 16.3629C16.4571 16.4384 16.4524 16.5187 16.4337 16.6084C16.4102 16.6981 16.3774 16.783 16.3258 16.8586C16.2743 16.9341 16.2133 16.9955 16.1477 17.038C16.0915 17.071 16.0305 17.0993 15.9649 17.1135C15.8993 17.1277 15.7962 17.1371 15.6649 17.1371H15.4915V17.1324ZM15.5712 16.8775H15.6462C15.8102 16.8775 15.9274 16.8586 15.993 16.8208C16.0587 16.783 16.1008 16.7169 16.1243 16.6225C16.1477 16.5234 16.1337 16.4478 16.0868 16.4101C16.0352 16.3676 15.9321 16.3487 15.7774 16.3487H15.7024L15.5712 16.8775ZM17.4508 17.9869L17.3571 17.4959H16.6258L16.2977 17.9869H15.9837L17.343 16.0088L17.7649 17.9869H17.4508ZM16.804 17.2363H17.3149L17.2305 16.8019C17.2258 16.7736 17.2212 16.7405 17.2212 16.7075C17.2165 16.6697 17.2165 16.632 17.2165 16.5895C17.1977 16.632 17.179 16.6697 17.1555 16.7075C17.1368 16.7453 17.118 16.7783 17.0993 16.8066L16.804 17.2363ZM18.1962 17.9869L18.4024 17.1182L18.0274 16.089H18.3415L18.5758 16.7358C18.5805 16.7547 18.5852 16.7736 18.5946 16.8019C18.604 16.8302 18.6087 16.8586 18.618 16.8869L18.6743 16.8019C18.693 16.7736 18.7118 16.75 18.7305 16.7264L19.279 16.089H19.579L18.7024 17.1135L18.4962 17.9822H18.1962V17.9869ZM21.0508 17.0474C21.0508 17.0333 21.0555 16.9908 21.0649 16.9247C21.0696 16.868 21.0743 16.8255 21.079 16.7878C21.0602 16.8302 21.0415 16.8727 21.018 16.9199C20.9946 16.9624 20.9665 17.0096 20.9337 17.0521L20.2118 18.0672L19.9774 17.0333C19.968 16.9908 19.9587 16.9483 19.954 16.9105C19.9493 16.8727 19.9446 16.8302 19.9446 16.7925C19.9352 16.8302 19.9212 16.8727 19.9071 16.9199C19.893 16.9624 19.8743 17.0096 19.8508 17.0569L19.429 17.9916H19.1524L20.0571 16.0088L20.3149 17.2079C20.3196 17.2268 20.3243 17.2599 20.329 17.3024C20.3337 17.3448 20.343 17.4015 20.3524 17.4676C20.3852 17.4109 20.4274 17.3448 20.4837 17.2599C20.4977 17.2363 20.5118 17.2221 20.5165 17.2079L21.3321 16.0088L21.304 17.9916H21.0274L21.0508 17.0474ZM21.5477 17.9869L21.9977 16.0843H23.0243L22.9633 16.3487H22.2368L22.1243 16.8255H22.8508L22.7852 17.0946H22.0587L21.9133 17.7084H22.6399L22.5743 17.9869H21.5477ZM22.9165 17.9869L23.3852 16.0088L24.2758 17.1702C24.2993 17.2032 24.3227 17.2363 24.3462 17.274C24.3696 17.3118 24.393 17.3543 24.4212 17.4015L24.7352 16.0843H25.0118L24.543 18.0577L23.6337 16.8727L23.5633 16.7736C23.5399 16.7358 23.5212 16.7028 23.5071 16.6603L23.193 17.9822H22.9165V17.9869ZM25.968 16.344L25.579 17.9822H25.279L25.668 16.344H25.1805L25.2415 16.0796H26.5165L26.4555 16.344H25.968ZM26.2821 17.6045L26.5493 17.4912C26.554 17.5762 26.5774 17.6423 26.629 17.6848C26.6805 17.7272 26.7508 17.7508 26.8446 17.7508C26.9337 17.7508 27.0087 17.7272 27.0743 17.6753C27.1399 17.6234 27.1821 17.5573 27.2008 17.4723C27.229 17.359 27.1633 17.2599 27.004 17.1749C26.9805 17.1607 26.9665 17.1513 26.9524 17.1466C26.7743 17.0427 26.6618 16.953 26.6149 16.868C26.568 16.783 26.5587 16.6839 26.5868 16.5659C26.6243 16.4101 26.704 16.2873 26.8305 16.1882C26.9571 16.0938 27.0977 16.0418 27.2665 16.0418C27.4024 16.0418 27.5102 16.0702 27.5899 16.1221C27.6696 16.174 27.7118 16.2543 27.7258 16.3534L27.4633 16.4762C27.4399 16.4148 27.4118 16.3723 27.3743 16.344C27.3368 16.3157 27.2899 16.3015 27.2337 16.3015C27.154 16.3015 27.0837 16.3251 27.0274 16.3676C26.9712 16.4101 26.9337 16.4667 26.9149 16.5423C26.8868 16.6556 26.9665 16.7642 27.1493 16.8633C27.1633 16.8727 27.1727 16.8775 27.1821 16.8822C27.3415 16.9672 27.4493 17.0521 27.4962 17.1371C27.543 17.2221 27.5524 17.3212 27.5243 17.4487C27.4821 17.6281 27.393 17.7697 27.2571 17.8783C27.1212 17.9822 26.9618 18.0388 26.7743 18.0388C26.6196 18.0388 26.4977 18.0011 26.4133 17.9255C26.3196 17.85 26.2774 17.7414 26.2821 17.6045ZM28.4899 17.9869L28.9399 16.0843H29.2399L28.7899 17.9869H28.4899ZM29.2212 17.9869L29.6899 16.0088L30.5805 17.1702C30.604 17.2032 30.6274 17.2363 30.6508 17.274C30.6743 17.3118 30.6977 17.3543 30.7258 17.4015L31.0399 16.0843H31.3165L30.8477 18.0577L29.9383 16.8727L29.868 16.7736C29.8446 16.7358 29.8258 16.7028 29.8118 16.6603L29.4977 17.9822H29.2212V17.9869ZM32.2727 16.344L31.8837 17.9822H31.5837L31.9727 16.344H31.4852L31.5462 16.0796H32.8212L32.7602 16.344H32.2727ZM32.5962 17.9869L33.0462 16.0843H34.0774L34.0165 16.3487H33.2899L33.1774 16.8255H33.904L33.8383 17.0946H33.1118L32.9665 17.7084H33.693L33.6274 17.9869H32.5962ZM34.4477 17.1324L34.2462 17.9822H33.9649L34.4149 16.0796H34.8321C34.954 16.0796 35.0477 16.089 35.1087 16.1032C35.1743 16.1174 35.2258 16.1457 35.2633 16.1835C35.3102 16.2307 35.3383 16.2873 35.3524 16.3629C35.3665 16.4337 35.3618 16.5139 35.343 16.6036C35.3055 16.7547 35.2446 16.8775 35.1508 16.9624C35.0571 17.0474 34.9399 17.0993 34.7993 17.1182L35.2258 17.9822H34.8883L34.4805 17.1324H34.4477ZM34.5227 16.8916H34.579C34.7383 16.8916 34.8462 16.8727 34.9071 16.835C34.968 16.7972 35.0102 16.7311 35.0337 16.632C35.0571 16.5281 35.0477 16.4526 35.0008 16.4101C34.954 16.3676 34.8555 16.344 34.7055 16.344H34.6493L34.5227 16.8916ZM35.4087 17.9869L35.8587 16.0843H36.8852L36.8243 16.3487H36.0977L35.9852 16.8208H36.7118L36.6462 17.0899H35.9196L35.7087 17.9822H35.4087V17.9869ZM37.8837 17.9869L37.7899 17.4959H37.0587L36.7305 17.9869H36.4165L37.7758 16.0088L38.1977 17.9869H37.8837ZM37.2321 17.2363H37.743L37.6587 16.8019C37.654 16.7736 37.6493 16.7405 37.6493 16.7075C37.6446 16.6697 37.6446 16.632 37.6446 16.5895C37.6258 16.632 37.6071 16.6697 37.5837 16.7075C37.5649 16.7453 37.5462 16.7783 37.5274 16.8066L37.2321 17.2363ZM40.1477 16.547C40.0821 16.4714 40.0024 16.4148 39.918 16.3818C39.8337 16.344 39.7399 16.3251 39.6321 16.3251C39.4305 16.3251 39.2524 16.3912 39.093 16.5234C38.9337 16.6556 38.8305 16.8302 38.779 17.0427C38.7321 17.2457 38.7508 17.4157 38.8446 17.5526C38.9337 17.6848 39.0743 17.7508 39.2618 17.7508C39.3696 17.7508 39.4774 17.732 39.5852 17.6895C39.693 17.6517 39.8008 17.5903 39.9133 17.5101L39.829 17.8594C39.7352 17.9208 39.6368 17.9633 39.5337 17.9916C39.4305 18.0199 39.3274 18.0341 39.2149 18.0341C39.0743 18.0341 38.9477 18.0105 38.8399 17.9633C38.7321 17.9161 38.643 17.8453 38.5727 17.7508C38.5024 17.6611 38.4602 17.5526 38.4415 17.4298C38.4227 17.3071 38.4274 17.1749 38.4649 17.0333C38.4977 16.8916 38.554 16.7642 38.629 16.6414C38.704 16.5187 38.8024 16.4101 38.9149 16.3204C39.0274 16.226 39.1493 16.1551 39.2805 16.1079C39.4118 16.0607 39.543 16.0371 39.679 16.0371C39.7868 16.0371 39.8852 16.0513 39.979 16.0843C40.068 16.1174 40.1524 16.1646 40.2274 16.2307L40.1477 16.547ZM40.1758 17.9869L40.6258 16.0843H41.6524L41.5915 16.3487H40.8649L40.7524 16.8255H41.479L41.4133 17.0946H40.6868L40.5415 17.7084H41.268L41.2024 17.9869H40.1758Z" fill="#3D3D3C"/>
<path d="M34.7194 14.4273H32.6616L35.521 4.02686H37.5788L34.7194 14.4273ZM33.6507 4.35261C33.5101 4.15432 33.2898 4.05518 32.9898 4.05518H21.6835L21.1257 6.09467H31.4101L30.8101 8.27106H22.5835V8.26634H20.5257L18.8194 14.4745H20.8773L22.021 10.3105H31.2694C31.5601 10.3105 31.8319 10.2114 32.0851 10.0131C32.3382 9.81484 32.5069 9.56934 32.5866 9.27664L33.7304 5.11269C33.8194 4.8011 33.7913 4.55089 33.6507 4.35261ZM17.6194 13.7758C17.5069 14.1865 17.1319 14.4745 16.7101 14.4745H6.10226C5.81163 14.4745 5.59601 14.3754 5.45538 14.1771C5.31476 13.9788 5.28195 13.7333 5.36632 13.4406L7.95382 4.05518H10.0116L7.7007 12.4397H15.9319L18.2429 4.05518H20.3007L17.6194 13.7758Z" fill="#70706E"/>
<path d="M41.1324 4.0459L43.734 9.25792L38.2637 14.4699L41.1324 4.0459Z" fill="#098041"/>
<path d="M39.3051 4.0459L41.9066 9.25792L36.4316 14.4699L39.3051 4.0459Z" fill="#E97626"/>
</svg>
